<?xml version="1.0" encoding="UTF-8" standalone="no"?>
<!-- Generator: Adobe Illustrator 27.5.0, SVG Export Plug-In . SVG Version: 6.00 Build 0)  -->

<svg
   version="1.1"
   x="0px"
   y="0px"
   viewBox="0 0 124 17"
   preserveAspectRatio="none" 
   id="svg247"
   width="124"
   height="17"
   sodipodi:docname="vertical-doodle.svg"
   inkscape:version="1.4.2 (f4327f4, 2025-05-13)"
   xmlns:inkscape="http://www.inkscape.org/namespaces/inkscape"
   xmlns:sodipodi="http://sodipodi.sourceforge.net/DTD/sodipodi-0.dtd"
   xmlns="http://www.w3.org/2000/svg"
   xmlns:svg="http://www.w3.org/2000/svg"><sodipodi:namedview
   id="namedview1"
   pagecolor="#ffffff"
   bordercolor="#000000"
   borderopacity="0.25"
   inkscape:showpageshadow="2"
   inkscape:pageopacity="0.0"
   inkscape:pagecheckerboard="0"
   inkscape:deskcolor="#d1d1d1"
   inkscape:zoom="1.7887679"
   inkscape:cx="115.72211"
   inkscape:cy="-25.995547"
   inkscape:window-width="1920"
   inkscape:window-height="1017"
   inkscape:window-x="-8"
   inkscape:window-y="-8"
   inkscape:window-maximized="1"
   inkscape:current-layer="svg247" /><defs
   id="defs247" />


<g
   id="g5-9-8"
   transform="translate(-203.99499,-46.079047)">
					<path fill="#a6082f" fill-opacity="0.7"
   d="m 204.983,59.077 c 1.062,-3.138 5.264,-6.157 7.85,-8.018 -0.228,-0.228 -0.456,-0.456 -0.684,-0.684 -2.473,3.851 -5.562,7.285 -7.604,11.407 -0.203,0.411 0.24,0.995 0.684,0.684 4.578,-3.203 7.644,-7.996 11.745,-11.722 -0.262,-0.202 -0.524,-0.404 -0.785,-0.606 -1.919,4.203 -6.401,6.866 -7.417,11.526 -0.083,0.383 0.353,0.85 0.735,0.565 5.109,-3.815 8.135,-9.93 13.783,-13.07 -0.245,-0.188 -0.49,-0.376 -0.734,-0.565 -1.173,4.429 -5.001,7.429 -6.654,11.644 -0.206,0.525 0.494,0.753 0.836,0.486 3.624,-2.822 5.765,-7.028 9.268,-9.981 -0.279,-0.162 -0.557,-0.324 -0.836,-0.486 -1.185,3.939 -4.967,6.415 -5.941,10.456 -0.107,0.445 0.342,0.757 0.734,0.565 5.358,-2.63 8.096,-8.236 12.833,-11.644 -0.245,-0.188 -0.49,-0.376 -0.734,-0.565 -1.275,4.207 -5.646,6.724 -6.416,11.169 -0.049,0.283 0.131,0.677 0.482,0.633 5.441,-0.687 8.442,-7.88 11.998,-11.315 -0.279,-0.162 -0.557,-0.324 -0.836,-0.486 -1.817,4.704 -6.216,7.781 -7.842,12.595 -0.178,0.528 0.481,0.761 0.836,0.486 4.673,-3.616 7.247,-9.241 12.018,-12.754 -0.245,-0.188 -0.49,-0.376 -0.734,-0.565 -1.104,4.451 -4.54,7.65 -6.366,11.762 -0.225,0.506 0.346,1.011 0.785,0.606 4.238,-3.91 6.853,-9.306 11.543,-12.754 -0.228,-0.228 -0.456,-0.456 -0.684,-0.684 -2.079,4.593 -6.001,8.002 -8.08,12.595 -0.231,0.511 0.345,1.001 0.785,0.606 3.725,-3.344 6.503,-7.573 10.218,-10.931 -0.278,-0.162 -0.557,-0.324 -0.836,-0.486 -1.644,4.834 -6.236,7.828 -8.267,12.475 -0.173,0.396 0.234,1.025 0.684,0.684 4.614,-3.498 8.289,-7.978 12.458,-11.96 -0.262,-0.202 -0.524,-0.404 -0.785,-0.606 -2.091,4.425 -5.641,7.903 -8.08,12.12 -0.238,0.412 0.258,0.983 0.684,0.684 5.296,-3.72 7.982,-10.206 13.783,-13.308 -0.245,-0.188 -0.49,-0.376 -0.734,-0.565 -1.749,4.839 -7.285,7.544 -8.08,12.832 -0.075,0.502 0.432,0.819 0.836,0.486 4.896,-4.038 9.009,-8.928 14.021,-12.833 -0.262,-0.202 -0.523,-0.404 -0.785,-0.606 -1.939,4.301 -5.78,7.321 -8.08,11.407 -0.205,0.365 0.134,0.878 0.565,0.734 6.224,-2.069 8.48,-9.241 14.14,-12.17 -0.228,-0.228 -0.456,-0.456 -0.684,-0.684 -2.26,4.25 -6.057,7.392 -8.317,11.644 -0.22,0.413 0.247,0.986 0.684,0.684 5.147,-3.561 8.836,-8.72 13.646,-12.673 -0.262,-0.202 -0.523,-0.404 -0.785,-0.606 -2.306,4.084 -6.269,6.909 -8.317,11.169 -0.174,0.362 0.114,0.89 0.565,0.735 6.175,-2.131 8.896,-8.978 14.378,-12.17 -0.228,-0.228 -0.456,-0.456 -0.684,-0.684 -2.358,4.394 -6.697,7.312 -8.793,11.882 -0.166,0.363 0.108,0.891 0.565,0.735 6.061,-2.074 9.271,-8.21 14.378,-11.695 -0.228,-0.228 -0.456,-0.456 -0.684,-0.684 -2.275,3.671 -5.173,6.893 -7.604,10.456 -0.314,0.461 0.274,0.864 0.684,0.684 5.208,-2.279 8.388,-7.355 12.832,-10.694 -0.228,-0.228 -0.456,-0.456 -0.684,-0.684 -2.349,3.281 -5.472,6.156 -6.704,10.1 -0.143,0.459 0.363,0.731 0.734,0.565 4.087,-1.833 6.793,-5.755 9.844,-8.871 0.451,-0.461 -0.251,-1.164 -0.707,-0.707 -2.812,2.814 -5.604,5.648 -7.92,8.894 -0.318,0.446 0.277,0.88 0.684,0.684 4.299,-2.064 7.185,-5.888 10.795,-8.871 -0.236,-0.236 -0.471,-0.471 -0.707,-0.707 -2.736,2.989 -5.949,6.024 -7.258,9.964 -0.095,0.285 0.165,0.669 0.482,0.633 5.206,-0.597 9.421,-6.057 12.711,-9.652 0.434,-0.474 -0.246,-1.163 -0.707,-0.707 -2.683,2.653 -5.576,5.183 -7.207,8.656 -0.215,0.456 0.219,0.916 0.684,0.684 3.634,-1.813 6.424,-4.717 9.369,-7.445 -0.236,-0.236 -0.471,-0.471 -0.707,-0.707 -2.051,2.494 -4.408,4.737 -5.781,7.706 -0.163,0.353 0.11,0.906 0.565,0.735 4.451,-1.684 6.817,-5.945 10.576,-8.605 -0.228,-0.228 -0.456,-0.456 -0.684,-0.684 -1.633,3.276 -4.205,5.911 -6.416,8.793 -0.318,0.414 0.282,0.923 0.684,0.684 3.898,-2.314 6.824,-5.805 10.32,-8.633 -0.262,-0.202 -0.523,-0.404 -0.785,-0.606 -1.866,2.989 -4.644,5.257 -6.416,8.317 -0.246,0.425 0.252,0.955 0.684,0.684 3.685,-2.31 6.682,-5.447 9.844,-8.395 -0.262,-0.202 -0.523,-0.404 -0.785,-0.606 -1.796,2.681 -4.145,4.923 -5.941,7.604 -0.312,0.466 0.272,0.859 0.684,0.684 3.188,-1.351 5.65,-3.725 8.181,-6.019 -0.262,-0.202 -0.524,-0.404 -0.785,-0.606 -0.552,1.204 -0.998,2.449 -1.476,3.684 -0.129,0.333 0.275,0.758 0.615,0.615 1.551,-0.653 2.793,-1.7 4.159,-2.664 -0.228,-0.228 -0.456,-0.456 -0.684,-0.684 -2.238,3.329 -5.223,6.048 -7.604,9.268 -0.292,0.395 0.289,0.982 0.684,0.684 4.577,-3.449 8.432,-7.672 12.458,-11.722 0.455,-0.458 -0.252,-1.165 -0.707,-0.707 -3.963,3.986 -7.751,8.171 -12.256,11.566 0.228,0.228 0.456,0.456 0.684,0.684 2.382,-3.221 5.365,-5.936 7.604,-9.268 0.273,-0.407 -0.275,-0.972 -0.684,-0.684 -1.282,0.905 -2.458,1.948 -3.92,2.564 0.205,0.205 0.41,0.41 0.615,0.615 0.447,-1.154 0.859,-2.319 1.375,-3.445 0.234,-0.509 -0.348,-1.003 -0.785,-0.606 -2.468,2.237 -4.87,4.545 -7.979,5.863 0.228,0.228 0.456,0.456 0.684,0.684 1.796,-2.681 4.145,-4.923 5.941,-7.604 0.327,-0.488 -0.383,-0.981 -0.785,-0.606 -3.098,2.889 -6.03,5.975 -9.642,8.239 0.228,0.228 0.456,0.456 0.684,0.684 1.771,-3.059 4.55,-5.327 6.416,-8.317 0.322,-0.515 -0.369,-0.942 -0.785,-0.606 -3.428,2.773 -6.295,6.207 -10.117,8.477 0.228,0.228 0.456,0.456 0.684,0.684 2.213,-2.883 4.781,-5.512 6.416,-8.793 0.204,-0.409 -0.242,-0.997 -0.684,-0.684 -3.648,2.582 -6.035,6.877 -10.337,8.505 0.188,0.245 0.376,0.49 0.565,0.735 1.337,-2.888 3.629,-5.076 5.625,-7.503 0.404,-0.491 -0.226,-1.153 -0.707,-0.707 -2.881,2.669 -5.609,5.513 -9.167,7.289 0.228,0.228 0.456,0.456 0.684,0.684 1.595,-3.396 4.429,-5.861 7.051,-8.454 -0.236,-0.236 -0.471,-0.472 -0.707,-0.707 -3.068,3.353 -7.174,8.805 -12.004,9.359 0.161,0.211 0.321,0.422 0.482,0.633 1.25,-3.766 4.384,-6.664 7.001,-9.522 0.442,-0.483 -0.216,-1.113 -0.707,-0.707 -3.542,2.926 -6.374,6.689 -10.593,8.714 0.228,0.228 0.456,0.456 0.684,0.684 2.266,-3.175 5.014,-5.94 7.764,-8.691 -0.236,-0.236 -0.471,-0.471 -0.707,-0.707 -2.988,3.052 -5.642,6.921 -9.642,8.714 0.245,0.188 0.49,0.376 0.734,0.565 1.2,-3.843 4.311,-6.66 6.603,-9.861 0.285,-0.397 -0.286,-0.983 -0.684,-0.684 -4.433,3.33 -7.65,8.425 -12.832,10.694 0.228,0.228 0.456,0.456 0.684,0.684 2.431,-3.563 5.329,-6.784 7.604,-10.456 0.256,-0.414 -0.264,-0.971 -0.684,-0.684 -4.997,3.41 -8.236,9.573 -14.139,11.594 0.188,0.245 0.377,0.49 0.565,0.734 2.093,-4.564 6.434,-7.487 8.793,-11.882 0.234,-0.435 -0.239,-0.943 -0.684,-0.684 -5.374,3.129 -8.134,9.997 -14.139,12.069 0.188,0.245 0.376,0.49 0.565,0.735 2.045,-4.254 6.011,-7.085 8.317,-11.169 0.294,-0.521 -0.361,-0.955 -0.785,-0.606 -4.742,3.897 -8.372,9.007 -13.444,12.517 0.228,0.228 0.456,0.456 0.684,0.684 2.26,-4.25 6.057,-7.392 8.317,-11.644 0.24,-0.451 -0.236,-0.916 -0.684,-0.684 -5.56,2.877 -7.849,10.057 -13.901,12.069 0.188,0.245 0.376,0.49 0.565,0.735 2.3,-4.086 6.139,-7.1 8.08,-11.407 0.241,-0.534 -0.333,-0.958 -0.785,-0.606 -5.012,3.904 -9.125,8.794 -14.021,12.833 0.279,0.162 0.557,0.324 0.836,0.486 0.783,-5.211 6.334,-8.001 8.08,-12.832 0.158,-0.438 -0.376,-0.756 -0.734,-0.565 -5.824,3.115 -8.484,9.586 -13.783,13.308 0.228,0.228 0.456,0.456 0.684,0.684 2.439,-4.216 5.989,-7.694 8.08,-12.119 0.237,-0.502 -0.357,-1.015 -0.785,-0.606 -4.103,3.919 -7.715,8.361 -12.256,11.804 0.228,0.228 0.456,0.456 0.684,0.684 2.068,-4.732 6.686,-7.772 8.368,-12.714 0.171,-0.502 -0.487,-0.801 -0.836,-0.486 -3.715,3.358 -6.493,7.587 -10.218,10.931 0.262,0.202 0.523,0.404 0.785,0.606 2.079,-4.593 6.001,-8.001 8.08,-12.595 0.182,-0.402 -0.234,-1.015 -0.684,-0.684 -4.774,3.51 -7.438,8.936 -11.745,12.911 0.262,0.202 0.524,0.404 0.785,0.606 1.863,-4.195 5.34,-7.46 6.467,-12.001 0.096,-0.388 -0.359,-0.841 -0.734,-0.565 -4.847,3.569 -7.48,9.242 -12.221,12.911 0.279,0.162 0.557,0.324 0.836,0.486 1.617,-4.788 6.024,-7.886 7.842,-12.595 0.189,-0.491 -0.5,-0.811 -0.836,-0.486 -1.723,1.665 -3.118,3.65 -4.608,5.518 -1.648,2.066 -3.856,5.147 -6.683,5.504 0.161,0.211 0.321,0.422 0.482,0.633 0.763,-4.403 5.141,-6.961 6.416,-11.169 0.12,-0.396 -0.371,-0.826 -0.734,-0.565 -4.728,3.402 -7.5,9.027 -12.832,11.644 0.245,0.188 0.49,0.376 0.734,0.565 0.968,-4.016 4.755,-6.512 5.941,-10.456 0.154,-0.514 -0.475,-0.791 -0.836,-0.487 -3.503,2.953 -5.644,7.159 -9.268,9.981 0.279,0.162 0.557,0.324 0.836,0.486 1.656,-4.222 5.473,-7.187 6.654,-11.644 0.114,-0.43 -0.351,-0.778 -0.734,-0.565 -5.672,3.154 -8.665,9.249 -13.783,13.07 0.245,0.188 0.49,0.376 0.734,0.565 0.989,-4.533 5.438,-7.173 7.316,-11.287 0.232,-0.509 -0.348,-1.004 -0.785,-0.606 -4.033,3.664 -7.044,8.418 -11.543,11.566 0.228,0.228 0.456,0.456 0.684,0.684 2.042,-4.122 5.131,-7.555 7.604,-11.407 0.261,-0.407 -0.272,-0.981 -0.684,-0.684 -2.862,2.06 -7.131,5.134 -8.309,8.616 -0.215,0.605 0.751,0.866 0.957,0.259 z"
   id="path4-4-2" />
				</g></svg>
