<?xml version="1.0" encoding="UTF-8" standalone="no"?>
<!-- Generator: Adobe Illustrator 27.5.0, SVG Export Plug-In . SVG Version: 6.00 Build 0)  -->

<svg
   version="1.1"
   x="0px"
   y="0px"
   viewBox="0 0 200 8.9432125"
   xml:space="preserve"
   id="svg137"
   width="200"
   height="8.9432125"
   xmlns="http://www.w3.org/2000/svg"
   xmlns:svg="http://www.w3.org/2000/svg"><defs
   id="defs137" />




<g
   id="g80"
   transform="matrix(0.97448042,0,0,1,-36.454009,-365.73958)">
			<path
   style="fill:#222221"
   d="m 42.796,369.617 c -0.694,-1.41 -2.427,-2.102 -3.804,-1.203 -0.169,0.111 -0.322,0.243 -0.463,0.388 -1.19,0.723 -1.408,2.398 -0.768,3.567 0.734,1.34 2.402,1.663 3.72,1.021 1.421,-0.693 2.019,-2.342 1.315,-3.773 z"
   id="path49" />
			<path
   style="fill:#222221"
   d="m 49.568,373.221 c -2.108,-2.382 -4.041,-4.916 -6.145,-7.292 -0.464,-0.523 -1.218,0.143 -0.927,0.715 1.427,2.809 3.677,5.532 5.871,7.778 0.771,0.789 1.921,-0.388 1.201,-1.201 z"
   id="path50" />
			<path
   style="fill:#222221"
   d="m 55.766,369.617 c -0.694,-1.41 -2.427,-2.102 -3.804,-1.203 -0.169,0.111 -0.323,0.243 -0.463,0.388 -1.19,0.723 -1.408,2.398 -0.768,3.567 0.734,1.34 2.402,1.663 3.72,1.021 1.421,-0.693 2.019,-2.342 1.315,-3.773 z"
   id="path51" />
			<path
   style="fill:#222221"
   d="m 62.539,373.221 c -2.108,-2.382 -4.041,-4.916 -6.145,-7.292 -0.464,-0.523 -1.218,0.143 -0.927,0.715 1.427,2.809 3.677,5.532 5.871,7.778 0.77,0.789 1.92,-0.388 1.201,-1.201 z"
   id="path52" />
			<path
   style="fill:#222221"
   d="m 68.513,369.617 c -0.694,-1.41 -2.427,-2.102 -3.804,-1.203 -0.169,0.111 -0.323,0.243 -0.463,0.388 -1.19,0.723 -1.408,2.398 -0.768,3.567 0.734,1.34 2.402,1.663 3.72,1.021 1.42,-0.693 2.018,-2.342 1.315,-3.773 z"
   id="path53" />
			<path
   style="fill:#222221"
   d="m 75.285,373.221 c -2.108,-2.382 -4.041,-4.916 -6.145,-7.292 -0.463,-0.523 -1.218,0.143 -0.927,0.715 1.427,2.809 3.677,5.532 5.871,7.778 0.771,0.789 1.92,-0.388 1.201,-1.201 z"
   id="path54" />
			<path
   style="fill:#222221"
   d="m 81.483,369.617 c -0.694,-1.41 -2.427,-2.102 -3.804,-1.203 -0.169,0.111 -0.322,0.243 -0.463,0.388 -1.19,0.723 -1.408,2.398 -0.768,3.567 0.734,1.34 2.402,1.663 3.72,1.021 1.42,-0.693 2.019,-2.342 1.315,-3.773 z"
   id="path55" />
			<path
   style="fill:#222221"
   d="m 88.255,373.221 c -2.108,-2.382 -4.041,-4.916 -6.145,-7.292 -0.463,-0.523 -1.218,0.143 -0.927,0.715 1.427,2.809 3.677,5.532 5.871,7.778 0.771,0.789 1.92,-0.388 1.201,-1.201 z"
   id="path56" />
			<path
   style="fill:#222221"
   d="m 94.341,369.617 c -0.694,-1.41 -2.427,-2.102 -3.804,-1.203 -0.169,0.111 -0.323,0.243 -0.463,0.388 -1.19,0.723 -1.408,2.398 -0.768,3.567 0.734,1.34 2.402,1.663 3.72,1.021 1.421,-0.693 2.019,-2.342 1.315,-3.773 z"
   id="path57" />
			<path
   style="fill:#222221"
   d="m 101.113,373.221 c -2.108,-2.382 -4.041,-4.916 -6.145,-7.292 -0.464,-0.523 -1.218,0.143 -0.927,0.715 1.427,2.809 3.677,5.532 5.871,7.778 0.771,0.789 1.921,-0.388 1.201,-1.201 z"
   id="path58" />
			<path
   style="fill:#222221"
   d="m 107.311,369.617 c -0.694,-1.41 -2.427,-2.102 -3.804,-1.203 -0.169,0.111 -0.323,0.243 -0.463,0.388 -1.19,0.723 -1.408,2.398 -0.768,3.567 0.734,1.34 2.402,1.663 3.72,1.021 1.421,-0.693 2.019,-2.342 1.315,-3.773 z"
   id="path59" />
			<path
   style="fill:#222221"
   d="m 114.084,373.221 c -2.108,-2.382 -4.041,-4.916 -6.145,-7.292 -0.463,-0.523 -1.218,0.143 -0.927,0.715 1.427,2.809 3.677,5.532 5.871,7.778 0.77,0.789 1.92,-0.388 1.201,-1.201 z"
   id="path60" />
			<path
   style="fill:#222221"
   d="m 120.058,369.617 c -0.694,-1.41 -2.427,-2.102 -3.804,-1.203 -0.169,0.111 -0.323,0.243 -0.463,0.388 -1.19,0.723 -1.408,2.398 -0.768,3.567 0.734,1.34 2.402,1.663 3.72,1.021 1.42,-0.693 2.019,-2.342 1.315,-3.773 z"
   id="path61" />
			<path
   style="fill:#222221"
   d="m 126.83,373.221 c -2.108,-2.382 -4.041,-4.916 -6.145,-7.292 -0.464,-0.523 -1.218,0.143 -0.927,0.715 1.427,2.809 3.677,5.532 5.871,7.778 0.771,0.789 1.92,-0.388 1.201,-1.201 z"
   id="path62" />
			<path
   style="fill:#222221"
   d="m 133.028,369.617 c -0.694,-1.41 -2.427,-2.102 -3.804,-1.203 -0.169,0.111 -0.323,0.243 -0.463,0.388 -1.19,0.723 -1.408,2.398 -0.768,3.567 0.734,1.34 2.402,1.663 3.72,1.021 1.42,-0.693 2.019,-2.342 1.315,-3.773 z"
   id="path63" />
			<path
   style="fill:#222221"
   d="m 139.8,373.221 c -2.108,-2.382 -4.041,-4.916 -6.145,-7.292 -0.464,-0.523 -1.218,0.143 -0.927,0.715 1.427,2.809 3.677,5.532 5.871,7.778 0.771,0.789 1.92,-0.388 1.201,-1.201 z"
   id="path64" />
			<path
   style="fill:#222221"
   d="m 145.415,369.617 c -0.694,-1.41 -2.427,-2.102 -3.804,-1.203 -0.169,0.111 -0.323,0.243 -0.463,0.388 -1.19,0.723 -1.408,2.398 -0.768,3.567 0.734,1.34 2.402,1.663 3.72,1.021 1.42,-0.693 2.019,-2.342 1.315,-3.773 z"
   id="path65" />
			<path
   style="fill:#222221"
   d="m 152.187,373.221 c -2.108,-2.382 -4.041,-4.916 -6.145,-7.292 -0.464,-0.523 -1.218,0.143 -0.927,0.715 1.427,2.809 3.677,5.532 5.871,7.778 0.771,0.789 1.92,-0.388 1.201,-1.201 z"
   id="path66" />
			<path
   style="fill:#222221"
   d="m 158.385,369.617 c -0.694,-1.41 -2.427,-2.102 -3.804,-1.203 -0.169,0.111 -0.323,0.243 -0.463,0.388 -1.19,0.723 -1.408,2.398 -0.768,3.567 0.734,1.34 2.402,1.663 3.72,1.021 1.42,-0.693 2.019,-2.342 1.315,-3.773 z"
   id="path67" />
			<path
   style="fill:#222221"
   d="m 165.157,373.221 c -2.108,-2.382 -4.041,-4.916 -6.145,-7.292 -0.464,-0.523 -1.218,0.143 -0.927,0.715 1.427,2.809 3.677,5.532 5.871,7.778 0.771,0.789 1.921,-0.388 1.201,-1.201 z"
   id="path68" />
			<path
   style="fill:#222221"
   d="m 171.132,369.617 c -0.694,-1.41 -2.427,-2.102 -3.804,-1.203 -0.169,0.111 -0.323,0.243 -0.463,0.388 -1.19,0.723 -1.408,2.398 -0.768,3.567 0.734,1.34 2.402,1.663 3.72,1.021 1.42,-0.693 2.018,-2.342 1.315,-3.773 z"
   id="path69" />
			<path
   style="fill:#222221"
   d="m 177.904,373.221 c -2.108,-2.382 -4.041,-4.916 -6.145,-7.292 -0.464,-0.523 -1.218,0.143 -0.927,0.715 1.427,2.809 3.677,5.532 5.871,7.778 0.77,0.789 1.92,-0.388 1.201,-1.201 z"
   id="path70" />
			<path
   style="fill:#222221"
   d="m 184.102,369.617 c -0.694,-1.41 -2.427,-2.102 -3.804,-1.203 -0.169,0.111 -0.323,0.243 -0.463,0.388 -1.19,0.723 -1.408,2.398 -0.768,3.567 0.734,1.34 2.402,1.663 3.72,1.021 1.42,-0.693 2.018,-2.342 1.315,-3.773 z"
   id="path71" />
			<path
   style="fill:#222221"
   d="m 190.874,373.221 c -2.108,-2.382 -4.041,-4.916 -6.145,-7.292 -0.464,-0.523 -1.218,0.143 -0.927,0.715 1.427,2.809 3.677,5.532 5.871,7.778 0.77,0.789 1.92,-0.388 1.201,-1.201 z"
   id="path72" />
			<path
   style="fill:#222221"
   d="m 196.96,369.617 c -0.694,-1.41 -2.427,-2.102 -3.804,-1.203 -0.169,0.111 -0.323,0.243 -0.463,0.388 -1.19,0.723 -1.408,2.398 -0.768,3.567 0.734,1.34 2.402,1.663 3.72,1.021 1.42,-0.693 2.019,-2.342 1.315,-3.773 z"
   id="path73" />
			<path
   style="fill:#222221"
   d="m 203.732,373.221 c -2.108,-2.382 -4.041,-4.916 -6.145,-7.292 -0.464,-0.523 -1.218,0.143 -0.927,0.715 1.427,2.809 3.677,5.532 5.871,7.778 0.771,0.789 1.92,-0.388 1.201,-1.201 z"
   id="path74" />
			<path
   style="fill:#222221"
   d="m 209.93,369.617 c -0.694,-1.41 -2.427,-2.102 -3.804,-1.203 -0.169,0.111 -0.323,0.243 -0.463,0.388 -1.19,0.723 -1.408,2.398 -0.768,3.567 0.734,1.34 2.402,1.663 3.72,1.021 1.421,-0.693 2.019,-2.342 1.315,-3.773 z"
   id="path75" />
			<path
   style="fill:#222221"
   d="m 216.702,373.221 c -2.108,-2.382 -4.041,-4.916 -6.145,-7.292 -0.464,-0.523 -1.218,0.143 -0.927,0.715 1.427,2.809 3.677,5.532 5.871,7.778 0.771,0.789 1.921,-0.388 1.201,-1.201 z"
   id="path76" />
			<path
   style="fill:#222221"
   d="m 222.677,369.617 c -0.694,-1.41 -2.427,-2.102 -3.804,-1.203 -0.169,0.111 -0.323,0.243 -0.463,0.388 -1.19,0.723 -1.408,2.398 -0.768,3.567 0.734,1.34 2.402,1.663 3.72,1.021 1.42,-0.693 2.018,-2.342 1.315,-3.773 z"
   id="path77" />
			<path
   style="fill:#222221"
   d="m 229.449,373.221 c -2.108,-2.382 -4.041,-4.916 -6.145,-7.292 -0.464,-0.523 -1.218,0.143 -0.927,0.715 1.427,2.809 3.677,5.532 5.871,7.778 0.77,0.789 1.92,-0.388 1.201,-1.201 z"
   id="path78" />
			<path
   style="fill:#222221"
   d="m 235.647,369.617 c -0.694,-1.41 -2.427,-2.102 -3.804,-1.203 -0.169,0.111 -0.323,0.243 -0.463,0.388 -1.19,0.723 -1.408,2.398 -0.768,3.567 0.734,1.34 2.402,1.663 3.72,1.021 1.42,-0.693 2.018,-2.342 1.315,-3.773 z"
   id="path79" />
			<path
   style="fill:#222221"
   d="m 242.419,373.221 c -2.108,-2.382 -4.041,-4.916 -6.145,-7.292 -0.464,-0.523 -1.218,0.143 -0.927,0.715 1.427,2.809 3.677,5.532 5.871,7.778 0.771,0.789 1.92,-0.388 1.201,-1.201 z"
   id="path80" />
		</g></svg>
