<svg xmlns="http://www.w3.org/2000/svg" xmlns:xlink="http://www.w3.org/1999/xlink" version="1.1" x="0px" y="0px" viewBox="0 0 600 600" style="enable-background:new 0 0 600 600;" xml:space="preserve">
<g id="objects">
	<g>
		<path fill="currentColor" d="M448.363,239.553c-0.892-11.206,8.015,0,8.907,44.872c0-11.218,0-22.423,0-33.654    c0.89-11.218,2.673,0,4.452,0c0,11.23,0,22.436,0.893,22.436c0.889,0,2.672,0,3.561,0l-0.243-22.546    c0.891,0,3.805,0.111,4.698,0.111c0.889,22.436,2.67,22.436,2.67,0c0.892,11.23,1.782,11.23,3.564,11.23    c0.892,33.641,0.892,101.533,0.892,90.328c2.227,11.212,2.449,30.834,2.225,51.861c-0.157,10.513-0.319,21.377-0.474,31.717    c-0.029,2.585-0.058,5.137-0.086,7.642c-0.012,3.897-0.024,7.723-0.036,11.454c-0.004,8.346,0.038,16.278,0.15,23.72    c0.026,1.848,0.053,3.7,0.081,5.686c-19.245,0.249-39.007,0.505-59.159,0.765c-14.455,0.17-29.189,0.263-44.111,0.305    c-29.845,0.083-60.443-0.039-91.061-0.167c-30.619-0.127-61.258-0.259-91.187-0.193c-14.964,0.033-29.751,0.115-44.269,0.272    c-20.691,0.245-40.998,0.485-60.792,0.719c-0.213,0.003-0.426,0.006-0.646,0.009c-0.155-11.269-0.311-22.581-0.468-33.932    c-0.037-2.597-0.073-5.196-0.11-7.797l-0.108-4.683c-0.069-3.125-0.138-6.254-0.207-9.389c-0.242-12.539-0.485-25.154-0.729-37.83    c-0.435-25.351-0.772-50.941-1.034-76.631c-0.261-25.69-0.446-51.478-0.578-77.227c-0.053-12.874-0.106-25.739-0.159-38.575    c-0.032-20.163-0.063-40.283-0.095-60.333c44.131-0.022,87.792-0.044,130.513-0.066c0,1.781-11.218,4.452,0,5.344    c44.859,2.671,44.859,6.235,44.859,9.798c0,1.782-33.641,0-22.436,1.782c-33.641,0-35.446,0.891-1.767,2.671    c11.218,1.783,1.767,0,12.973,2.672c11.23,2.673-11.206,5.345,0,8.015c11.23,0,2.142,0,13.359,0    c11.196,1.784-3.621,11.337-10.52,11.355c0,0-44.953,0.35-69.96,0.485c-12.503,0.069-25.014,0.137-37.531,0.206l-9.389,0.052    l-4.695,0.026l-1.174,0.006l-0.107,0.006l-0.195,0.013l-1.464,0.103l0.104,1.519l0.013,0.177l0.003,0.044l0.003,0.383l0.006,1.193    l0.026,4.774l0.052,9.549c0.068,12.733,0.136,25.47,0.205,38.212c0.131,25.484,0.262,50.984,0.394,76.495    c0.121,25.511,0.241,51.033,0.362,76.56l0.165,38.293l0.078,16.043c0.025,0.095,0.05,0.169,0.075,0.222    c0.118-0.028,0.208-0.056,0.271-0.082l22.289-0.077c14.862-0.046,29.723-0.092,44.581-0.138    c29.716-0.067,59.421-0.134,89.106-0.201c29.685-0.028,59.349-0.056,88.983-0.084c14.817,0.003,29.627,0.005,44.428,0.008    c7.36,0.006,14.718,0.012,22.073,0.018l-0.258,0.027l0.023,0.174l0.013,0.076l0.014-6.251c0.022-9.515,0.044-19.025,0.066-28.529    c0.062-19.008,0.124-37.995,0.186-56.957c0.202-37.925,0.404-69.592,0.605-107.32L448.363,239.553z"/>
	</g>
</g>
</svg>