<?xml version="1.0" encoding="UTF-8" standalone="no"?>
<!-- Generator: Adobe Illustrator 27.5.0, SVG Export Plug-In . SVG Version: 6.00 Build 0)  -->

<svg
   version="1.1"
   preserveAspectRatio="none" 
   x="0px"
   y="0px"
   viewBox="0 0 17 89"
   id="svg247"
   width="17"
   height="89"
   sodipodi:docname="horizontal-doole.svg"
   inkscape:version="1.4.2 (f4327f4, 2025-05-13)"
   xmlns:inkscape="http://www.inkscape.org/namespaces/inkscape"
   xmlns:sodipodi="http://sodipodi.sourceforge.net/DTD/sodipodi-0.dtd"
   xmlns="http://www.w3.org/2000/svg"
   xmlns:svg="http://www.w3.org/2000/svg"><sodipodi:namedview
   id="namedview1"
   pagecolor="#ffffff"
   bordercolor="red"
   borderopacity="0.25"
   inkscape:showpageshadow="2"
   inkscape:pageopacity="0.0"
   inkscape:pagecheckerboard="0"
   inkscape:deskcolor="#d1d1d1"
   inkscape:zoom="3.2565017"
   inkscape:cx="0.61415598"
   inkscape:cy="50.821408"
   inkscape:window-width="1920"
   inkscape:window-height="1017"
   inkscape:window-x="-8"
   inkscape:window-y="-8"
   inkscape:window-maximized="1"
   inkscape:current-layer="svg247" /><defs
   id="defs247" />


<g
   id="g8"
   transform="translate(-310.93201,-52.964746)">
				<g
   id="g7">
					<path fill="#a6082f" fill-opacity="0.5"
   d="m 325.342,53.125 c -2.733,3.036 -5.893,5.681 -8.793,8.555 -0.348,0.345 0.002,0.987 0.487,0.836 3.901,-1.223 6.672,-4.397 10.1,-6.467 -0.228,-0.228 -0.456,-0.456 -0.684,-0.684 -3.399,4.5 -7.688,8.203 -11.328,12.494 -0.361,0.425 0.089,1.069 0.606,0.785 3.465,-1.898 5.741,-5.32 9.268,-7.129 -0.228,-0.228 -0.456,-0.456 -0.684,-0.684 -2.987,3.882 -6.623,7.201 -9.505,11.169 -0.3,0.413 0.278,0.942 0.684,0.684 3.427,-2.172 6.068,-5.498 9.861,-7.079 -0.188,-0.245 -0.376,-0.49 -0.565,-0.734 -2.927,4.747 -8.296,7.455 -10.507,12.714 -0.143,0.34 0.281,0.745 0.615,0.615 3.854,-1.503 5.956,-5.284 9.387,-7.417 -0.228,-0.228 -0.456,-0.456 -0.684,-0.684 -2.766,3.665 -6.233,6.784 -8.317,10.931 -0.176,0.351 0.12,0.907 0.565,0.735 3.807,-1.477 5.88,-5.35 9.625,-6.942 -0.245,-0.188 -0.49,-0.377 -0.734,-0.565 -1.054,4.961 -5.614,8.582 -8.664,12.374 -0.325,0.404 0.117,1.155 0.606,0.785 3.432,-2.595 5.739,-6.489 9.743,-8.317 -0.202,-0.262 -0.404,-0.524 -0.606,-0.785 -3.219,3.437 -6.698,6.707 -9.108,10.795 -0.277,0.469 0.253,0.873 0.684,0.684 3.33,-1.459 5.52,-4.507 8.555,-6.416 -0.202,-0.262 -0.404,-0.523 -0.606,-0.785 -3.819,4.31 -7.522,8.724 -10.534,13.647 -0.263,0.43 0.257,0.938 0.684,0.684 4.466,-2.651 7.163,-7.444 11.882,-9.743 -0.228,-0.228 -0.456,-0.456 -0.684,-0.684 -3.397,5.248 -8.866,8.795 -11.644,14.496 -0.213,0.437 0.227,0.947 0.684,0.684 4.313,-2.476 6.664,-7.196 10.931,-9.743 -0.202,-0.262 -0.404,-0.523 -0.606,-0.785 -3.932,4.852 -8.458,9.234 -11.722,14.597 -0.25,0.411 0.264,0.979 0.684,0.684 3.737,-2.62 6.447,-6.342 9.844,-9.346 -0.236,-0.236 -0.471,-0.471 -0.707,-0.707 -3.409,4.11 -7.048,8.036 -10.059,12.458 -0.285,0.419 0.271,0.943 0.684,0.684 4.143,-2.595 6.789,-6.854 10.694,-9.743 -0.202,-0.262 -0.404,-0.524 -0.606,-0.785 -4.118,4.386 -8.007,8.971 -11.485,13.884 -0.356,0.503 0.378,0.929 0.785,0.606 4.068,-3.228 7.029,-7.632 11.305,-10.616 -0.228,-0.228 -0.456,-0.456 -0.684,-0.684 -3.473,5.307 -8.171,9.663 -11.644,14.971 -0.337,0.515 0.372,0.931 0.785,0.606 3.967,-3.117 6.549,-7.816 11.305,-9.903 -0.202,-0.262 -0.404,-0.523 -0.606,-0.785 -4.232,4.729 -8.437,9.478 -12.198,14.597 -0.294,0.4 0.285,0.969 0.684,0.684 4.507,-3.218 7.654,-7.964 12.357,-10.931 -0.228,-0.228 -0.456,-0.456 -0.684,-0.684 -3.361,4.977 -8.337,8.659 -11.169,14.021 -0.221,0.419 0.243,0.976 0.684,0.684 3.866,-2.557 6.543,-6.405 10.082,-9.346 -0.236,-0.236 -0.471,-0.471 -0.707,-0.707 -3.853,4.978 -8.403,9.388 -11.96,14.597 -0.301,0.441 0.27,0.899 0.684,0.684 4.475,-2.32 6.864,-7.169 11.169,-9.743 -0.228,-0.228 -0.456,-0.456 -0.684,-0.684 -3.461,5.245 -8.578,9.133 -11.882,14.496 -0.268,0.435 0.257,0.929 0.684,0.684 3.709,-2.122 6.387,-5.558 9.981,-7.842 -0.228,-0.228 -0.456,-0.456 -0.684,-0.684 -2.579,4.143 -6.687,7.023 -9.268,11.169 -0.311,0.499 0.376,0.978 0.785,0.606 2.866,-2.611 5.817,-5.121 8.793,-7.604 -0.262,-0.202 -0.524,-0.404 -0.785,-0.606 -2.559,3.882 -6.357,6.674 -9.427,10.117 -0.362,0.406 0.111,1.115 0.606,0.785 3.284,-2.192 6.011,-5.01 8.894,-7.683 -0.236,-0.236 -0.471,-0.471 -0.707,-0.707 -2.273,2.113 -4.206,4.58 -6.79,6.338 -0.53,0.36 -0.03,1.227 0.505,0.863 2.659,-1.809 4.654,-4.32 6.993,-6.494 0.473,-0.44 -0.235,-1.145 -0.707,-0.707 -2.82,2.614 -5.478,5.381 -8.691,7.526 0.202,0.262 0.404,0.523 0.606,0.785 3.13,-3.511 6.974,-6.361 9.584,-10.32 0.333,-0.505 -0.375,-0.949 -0.785,-0.606 -2.976,2.483 -5.927,4.994 -8.793,7.604 0.262,0.202 0.523,0.404 0.785,0.606 2.579,-4.143 6.687,-7.023 9.268,-11.169 0.263,-0.422 -0.261,-0.953 -0.684,-0.684 -3.593,2.283 -6.277,5.723 -9.981,7.842 0.228,0.228 0.456,0.456 0.684,0.684 3.301,-5.358 8.42,-9.251 11.882,-14.496 0.281,-0.426 -0.266,-0.934 -0.684,-0.684 -4.306,2.575 -6.711,7.432 -11.169,9.743 0.228,0.228 0.456,0.456 0.684,0.684 3.508,-5.137 8.003,-9.485 11.804,-14.395 0.391,-0.505 -0.202,-1.126 -0.707,-0.707 -3.47,2.884 -6.09,6.682 -9.88,9.19 0.228,0.228 0.456,0.456 0.684,0.684 2.827,-5.353 7.81,-9.047 11.169,-14.021 0.283,-0.419 -0.27,-0.946 -0.684,-0.684 -4.711,2.973 -7.849,7.713 -12.357,10.931 0.228,0.228 0.456,0.456 0.684,0.684 3.71,-5.051 7.866,-9.729 12.041,-14.395 0.397,-0.444 -0.095,-1.009 -0.606,-0.785 -4.84,2.124 -7.472,6.888 -11.508,10.059 0.262,0.202 0.523,0.404 0.785,0.606 3.473,-5.307 8.171,-9.663 11.644,-14.971 0.268,-0.409 -0.272,-0.972 -0.684,-0.684 -4.351,3.035 -7.372,7.49 -11.508,10.772 0.262,0.202 0.524,0.404 0.785,0.606 3.429,-4.844 7.269,-9.358 11.328,-13.682 0.373,-0.397 -0.133,-1.135 -0.606,-0.785 -3.901,2.887 -6.563,7.156 -10.694,9.743 0.228,0.228 0.456,0.456 0.684,0.684 2.963,-4.352 6.548,-8.212 9.903,-12.256 0.409,-0.493 -0.219,-1.139 -0.707,-0.707 -3.33,2.945 -5.98,6.622 -9.642,9.19 0.228,0.228 0.456,0.456 0.684,0.684 3.219,-5.289 7.688,-9.61 11.566,-14.395 0.34,-0.42 -0.087,-1.095 -0.606,-0.785 -4.271,2.55 -6.63,7.274 -10.931,9.743 0.228,0.228 0.456,0.456 0.684,0.684 2.774,-5.69 8.249,-9.25 11.644,-14.496 0.292,-0.452 -0.264,-0.889 -0.684,-0.684 -4.73,2.305 -7.416,7.092 -11.882,9.743 0.228,0.228 0.456,0.456 0.684,0.684 2.968,-4.85 6.615,-9.198 10.378,-13.444 0.364,-0.41 -0.104,-1.101 -0.606,-0.785 -3.032,1.907 -5.234,4.961 -8.555,6.416 0.228,0.228 0.456,0.456 0.684,0.684 2.367,-4.014 5.792,-7.218 8.952,-10.592 0.406,-0.434 -0.101,-1.016 -0.606,-0.785 -4.027,1.839 -6.298,5.713 -9.743,8.317 0.202,0.262 0.404,0.523 0.606,0.785 3.151,-3.917 7.83,-7.676 8.921,-12.815 0.098,-0.462 -0.333,-0.736 -0.734,-0.565 -3.666,1.558 -5.69,5.407 -9.386,6.841 0.188,0.245 0.376,0.49 0.565,0.734 2.08,-4.139 5.555,-7.271 8.317,-10.931 0.31,-0.411 -0.281,-0.935 -0.684,-0.684 -3.329,2.069 -5.433,5.868 -9.148,7.316 0.205,0.205 0.41,0.41 0.615,0.615 2.154,-5.124 7.539,-7.826 10.406,-12.475 0.212,-0.344 -0.146,-0.909 -0.565,-0.735 -3.905,1.627 -6.58,4.948 -10.1,7.18 0.228,0.228 0.456,0.456 0.684,0.684 2.881,-3.966 6.519,-7.288 9.505,-11.169 0.331,-0.431 -0.284,-0.889 -0.684,-0.684 -3.533,1.812 -5.805,5.232 -9.268,7.129 0.202,0.262 0.404,0.524 0.606,0.785 3.697,-4.357 8.033,-8.126 11.485,-12.696 0.313,-0.414 -0.281,-0.928 -0.684,-0.684 -3.343,2.018 -6.063,5.175 -9.861,6.366 0.162,0.278 0.324,0.557 0.486,0.836 2.899,-2.874 6.06,-5.519 8.793,-8.555 0.429,-0.478 -0.276,-1.188 -0.708,-0.707 z"
   id="path6" />
				</g>
			</g></svg>
